<svg xmlns="http://www.w3.org/2000/svg" id="svg" width="100%" height="100%" class="transition duration-300 ease-in-out delay-150" viewBox="0 0 1440 600"><defs><linearGradient id="gradient" x1="7%" x2="93%" y1="76%" y2="24%"><stop offset="5%" stop-color="#fcb90066"/><stop offset="95%" stop-color="#32ded466"/></linearGradient></defs><path fill="url(#gradient)" stroke="none" stroke-width="0" d="M 0,600 C 0,600 0,150 0,150 C 52.99933407325196,145.73367862868417 105.99866814650392,141.46735725736835 162,150 C 218.00133185349608,158.53264274263165 277.0046614872363,179.86424959921075 332,178 C 386.9953385127637,176.13575040078925 437.9826859045505,151.07564434578865 488,148 C 538.0173140954495,144.92435565421135 587.0645948945615,163.83317301763472 635,159 C 682.9354051054385,154.16682698236528 729.7589345172032,125.59166358367246 789,113 C 848.2410654827968,100.40833641632754 919.8996670366259,103.80017264767542 972,126 C 1024.100332963374,148.19982735232458 1056.642397336293,189.20764582562586 1113,192 C 1169.357602663707,194.79235417437414 1249.5307436182022,159.3692440498212 1308,146 C 1366.4692563817978,132.6307559501788 1403.234628190899,141.3153779750894 1440,150 C 1440,150 1440,600 1440,600 Z" class="transition-all duration-300 ease-in-out delay-150 path-0"/><defs><linearGradient id="gradient" x1="7%" x2="93%" y1="76%" y2="24%"><stop offset="5%" stop-color="#fcb90088"/><stop offset="95%" stop-color="#32ded488"/></linearGradient></defs><path fill="url(#gradient)" stroke="none" stroke-width="0" d="M 0,600 C 0,600 0,300 0,300 C 41.39010975459367,316.8702922678506 82.78021950918733,333.7405845357011 145,332 C 207.21978049081267,330.2594154642989 290.26923171784443,309.9079541250462 348,305 C 405.73076828215557,300.0920458749538 438.1428536194351,310.62759896411393 481,310 C 523.8571463805649,309.37240103588607 577.159353804415,297.58165001849795 635,294 C 692.840646195585,290.41834998150205 755.2197311629053,295.04580096189414 817,289 C 878.7802688370947,282.95419903810586 939.9617215439637,266.23514613392524 982,256 C 1024.0382784560363,245.76485386607473 1046.9333826612403,242.01361450240478 1090,246 C 1133.0666173387597,249.98638549759522 1196.3047478110743,261.71039585645576 1258,272 C 1319.6952521889257,282.28960414354424 1379.8476260944628,291.1448020717721 1440,300 C 1440,300 1440,600 1440,600 Z" class="transition-all duration-300 ease-in-out delay-150 path-1"/><defs><linearGradient id="gradient" x1="7%" x2="93%" y1="76%" y2="24%"><stop offset="5%" stop-color="#fcb900ff"/><stop offset="95%" stop-color="#32ded4ff"/></linearGradient></defs><path fill="url(#gradient)" stroke="none" stroke-width="0" d="M 0,600 C 0,600 0,450 0,450 C 64.88661980515475,448.4892341842397 129.7732396103095,446.9784683684794 186,453 C 242.2267603896905,459.0215316315206 289.79366136391667,472.5753607103219 340,472 C 390.20633863608333,471.4246392896781 443.05211493402396,456.7200887902331 488,441 C 532.947885065976,425.2799112097669 569.9978788999877,408.5442841287458 625,417 C 680.0021211000123,425.4557158712542 752.9563694660254,459.1027746947836 820,462 C 887.0436305339746,464.8972253052164 948.1766432359107,437.04461709211984 987,436 C 1025.8233567640893,434.95538290788016 1042.3370575903318,460.71875693673695 1097,454 C 1151.6629424096682,447.28124306326305 1244.4751264027623,408.08035516093236 1308,402 C 1371.5248735972377,395.91964483906764 1405.7624367986189,422.9598224195338 1440,450 C 1440,450 1440,600 1440,600 Z" class="transition-all duration-300 ease-in-out delay-150 path-2"/></svg>